<?xml version="1.0" encoding="UTF-8"?>
<svg width="795px" height="156px" viewBox="0 0 795 156" version="1.1" xmlns="http://www.w3.org/2000/svg" xmlns:xlink="http://www.w3.org/1999/xlink">
    <!-- Generator: Sketch 52.6 (67491) - http://www.bohemiancoding.com/sketch -->
    <title>Group 2</title>
    <desc>Created with Sketch.</desc>
    <g id="Page-1" stroke="none" stroke-width="1" fill="none" fill-rule="evenodd">
        <g id="Group-2">
            <rect id="Rectangle" fill="#FF9000" x="0" y="0" width="795" height="135"></rect>
            <g id="Group" transform="translate(249.000000, 29.000000)" fill="#FFFFFF">
                <path d="M123.670251,0 L68.0430108,0 C61.3046595,0 56,5.54166667 56,12.25 L56,42.1458333 C56,48.8541667 61.3046595,54.25 67.8996416,54.3958333 L67.8996416,61.8333333 C67.8996416,65.1875 69.90681,68.1041667 72.9175627,69.4166667 C73.921147,69.8541667 74.9247312,70 76.0716846,70 C78.2222222,70 80.2293907,69.125 81.8064516,67.5208333 L94.8530466,54.25 L123.956989,54.25 C130.695341,54.25 136,48.7083333 136,42 L136,12.3958333 C135.713262,5.54166667 130.265233,0 123.670251,0 Z M127.25448,42.2916667 C127.25448,44.3333333 125.53405,46.0833333 123.526882,46.0833333 L92.8458781,46.0833333 C91.6989247,46.0833333 90.6953405,46.5208333 89.8351254,47.3958333 L76.2150538,61.1041667 L76.2150538,50.1666667 C76.2150538,47.8333333 74.3512545,45.9375 72.0573477,45.9375 L68.1863799,45.9375 C66.1792115,45.9375 64.4587814,44.1875 64.4587814,42.1458333 L64.4587814,12.3958333 C64.4587814,10.3541667 66.1792115,8.60416667 68.1863799,8.60416667 L123.81362,8.60416667 C125.820789,8.60416667 127.541219,10.3541667 127.541219,12.3958333 L127.541219,42.2916667 L127.25448,42.2916667 Z" id="Shape" fill-rule="nonzero"></path>
                <circle id="Oval" cx="78.5" cy="27.5" r="5.5"></circle>
                <circle id="Oval" cx="95.5" cy="27.5" r="5.5"></circle>
                <circle id="Oval" cx="115.5" cy="27.5" r="5.5"></circle>
                <path d="M87.7182374,92.3049536 L76.3365179,83.2352941 C73.8872871,81.2198142 70.7176944,80.2120743 67.692174,80.2120743 C63.6581469,80.2120743 59.7681921,81.9396285 57.0308165,85.1068111 C56.4545269,85.8266254 56.0223097,86.2585139 55.5900925,86.8343653 C54.0052962,85.8266254 51.411993,83.9551084 47.2338934,79.7801858 C43.0557939,75.6052632 41.1828527,73.0139319 40.1743459,71.4303406 C40.6065631,70.998452 41.1828527,70.5665635 41.9032147,69.9907121 C47.6661106,65.0959752 48.530545,56.6021672 43.7761559,50.6996904 L34.5555224,39.3266254 C31.8181468,36.0154799 27.9281921,34 23.6060201,34 C21.7330789,34 19.8601378,34.4318885 17.9871966,35.1517028 C13.2328074,37.1671827 6.60547711,42.9256966 5.30882552,44.3653251 C-3.47959078,53.1470588 0.554436378,66.1037152 3.86810154,72.869969 C8.04620109,81.6517028 15.5379658,91.5851393 25.4789613,101.518576 C34.9877396,111.020124 53.2849342,127 69.132898,127 C74.4635767,127 79.2179659,125.128483 82.6757034,121.673375 C84.1164274,120.233746 89.8793234,113.755418 91.8963369,109.004644 C94.3455677,103.102167 92.6166989,96.1919505 87.7182374,92.3049536 Z M84.1164274,105.549536 C82.8197758,108.716718 78.2094591,114.187307 76.7687351,115.626935 C74.7517215,117.642415 72.1584184,118.506192 69.132898,118.506192 C59.4800473,118.506192 45.2168799,109.29257 31.3859296,95.4721362 C13.3768798,77.4767802 3.00366715,58.4736842 11.2157939,50.2678019 C12.6565178,48.8281734 18.2753414,44.2213622 21.3008617,42.7817337 C22.0212237,42.493808 22.7415857,42.3498452 23.4619477,42.3498452 C25.1908165,42.3498452 26.7756129,43.0696594 27.7841197,44.5092879 L36.8606808,55.8823529 C38.7336219,58.1857585 38.4454771,61.6408669 36.1403188,63.5123839 C33.8351604,65.5278638 32.250364,66.9674923 31.8181468,67.3993808 C28.3604093,70.8544892 33.4029432,78.0526316 41.0387803,85.6826625 C46.9457486,91.5851393 52.7086446,96.0479876 56.5985993,96.0479876 C57.7511785,96.0479876 58.6156129,95.7600619 59.3359749,94.8962848 C59.7681921,94.4643963 61.2089161,92.880805 63.2259297,90.5773994 C64.3785088,89.2817337 65.9633052,88.5619195 67.4040292,88.5619195 C68.5566084,88.5619195 69.85326,88.993808 70.8617668,89.7136223 L82.2434862,98.7832817 C84.4045722,100.510836 85.1249342,103.24613 84.1164274,105.549536 Z" id="Shape" fill-rule="nonzero"></path>
            </g>
        </g>
    </g>
</svg>