<?xml version="1.0" encoding="UTF-8"?>
<svg width="96px" height="82px" viewBox="0 0 96 82" version="1.1" xmlns="http://www.w3.org/2000/svg" xmlns:xlink="http://www.w3.org/1999/xlink">
    <!-- Generator: Sketch 52.6 (67491) - http://www.bohemiancoding.com/sketch -->
    <title>noun_Empty_203873 2</title>
    <desc>Created with Sketch.</desc>
    <g id="Page-1" stroke="none" stroke-width="1" fill="none" fill-rule="evenodd">
        <g id="noun_Empty_203873-2">
            <g id="noun_Empty_203873">
                <polygon id="Path" fill="#00A6FF" points="92.662 50.486 73.232 33 22.768 33 3.338 50.486 0.662 47.514 21.232 29 74.768 29 95.338 47.514"></polygon>
                <path d="M90,82 L6,82 C2.691,82 0,79.309 0,76 L0,47 L32,47 L32,49 C32,53.963 36.037,58 41,58 L55,58 C59.963,58 64,53.963 64,49 L64,47 L96,47 L96,76 C96,79.309 93.309,82 90,82 Z M4,51 L4,76 C4,77.103 4.897,78 6,78 L90,78 C91.103,78 92,77.103 92,76 L92,51 L67.847,51 C66.882,57.223 61.488,62 55,62 L41,62 C34.512,62 29.118,57.223 28.153,51 L4,51 Z" id="Shape" fill="#00A6FF" fill-rule="nonzero"></path>
                <rect id="Rectangle" fill="#F5A623" transform="translate(30.499900, 8.501700) rotate(57.528808) translate(-30.499900, -8.501700) " x="23.9806024" y="6.5016087" width="13.0385952" height="4.0001826"></rect>
                <rect id="Rectangle" fill="#F5A623" transform="translate(66.501150, 8.498350) rotate(32.466358) translate(-66.501150, -8.498350) " x="64.5011661" y="1.97940238" width="3.99996786" height="13.0378952"></rect>
                <rect id="Rectangle" fill="#F5A623" x="46" y="0" width="4" height="13"></rect>
            </g>
        </g>
    </g>
</svg>