<?xml version="1.0" encoding="UTF-8"?>
<svg width="144px" height="197px" viewBox="0 0 144 197" version="1.1" xmlns="http://www.w3.org/2000/svg" xmlns:xlink="http://www.w3.org/1999/xlink">
    <!-- Generator: Sketch 52.6 (67491) - http://www.bohemiancoding.com/sketch -->
    <title>Group</title>
    <desc>Created with Sketch.</desc>
    <g id="Page-1" stroke="none" stroke-width="1" fill="none" fill-rule="evenodd">
        <g id="Group">
            <path d="M72,0 C32.4,0 0,32.4509151 0,72.1131448 C0,110.136439 64.1454545,190.772047 66.7636364,194.377704 C68.0727273,196.016639 70.0363636,197 72,197 C73.9636364,197 75.9272727,196.016639 77.2363636,194.377704 C79.8545455,190.772047 144,110.136439 144,72.1131448 C144,32.4509151 111.6,0 72,0 Z" id="Shape" fill="#00A6FF" fill-rule="nonzero"></path>
            <g id="Recyclo" transform="translate(24.000000, 39.000000)" fill="#FF9000">
                <path d="M95.7200394,37.0992 C95.2277241,36.0608 94.1837787,35.4 93.0330656,35.4 L84.1358021,35.4 L84.1358021,11.8 C84.1358021,5.2923 78.8152384,0 72.2727838,0 L28,0 L37.8878256,11.8 L72.2727838,11.8 L72.2727838,35.4 L63.3755202,35.4 C62.2248075,35.4 61.1808619,36.0608 60.6885466,37.0992 C60.2021628,38.1376 60.3563821,39.3589 61.0978207,40.238 L75.9265934,57.938 C76.4900868,58.6165 77.3264296,59 78.2042929,59 C79.0821562,59 79.9184991,58.6165 80.4819924,57.938 L95.3107651,40.238 C96.0522036,39.3589 96.2064229,38.1376 95.7200394,37.0992 Z" id="Path"></path>
                <path d="M23.7272162,47.2 L23.7272162,23.6 L32.6244798,23.6 C33.7751926,23.6 34.8191382,22.9392 35.3114534,21.9008 C35.7978372,20.8624 35.6436179,19.6411 34.9021793,18.762 L20.0734066,1.062 C19.5099133,0.3835 18.679502,0 17.7957071,0 C16.9119122,0 16.081501,0.3835 15.5180076,1.062 L0.689234931,18.762 C-0.0522037042,19.6411 -0.206422941,20.8624 0.279960805,21.9008 C0.772276058,22.9392 1.81622166,23.6 2.96693442,23.6 L11.864198,23.6 L11.864198,47.2 C11.864198,53.7077 17.1847617,59 23.7272162,59 L68,59 L58.1121744,47.2 L23.7272162,47.2 Z" id="Path"></path>
            </g>
        </g>
    </g>
</svg>