<?xml version="1.0" encoding="UTF-8"?>
<svg width="423px" height="76px" viewBox="0 0 423 76" version="1.1" xmlns="http://www.w3.org/2000/svg" xmlns:xlink="http://www.w3.org/1999/xlink">
    <!-- Generator: Sketch 52.6 (67491) - http://www.bohemiancoding.com/sketch -->
    <title>Recyclo-logo</title>
    <desc>Created with Sketch.</desc>
    <g id="Page-1" stroke="none" stroke-width="1" fill="none" fill-rule="evenodd">
        <g id="Recyclo-logo" transform="translate(0.000000, -5.000000)">
            <g id="Recyclo" transform="translate(0.000000, 8.000000)" fill="#FF9000">
                <path d="M102.699454,40.2432 C102.170939,39.1168 101.050233,38.4 99.8149086,38.4 L90.2634345,38.4 L90.2634345,12.8 C90.2634345,5.7408 84.5516529,0 77.5281355,0 L30,0 L40.6148716,12.8 L77.5281355,12.8 L77.5281355,38.4 L67.9766614,38.4 C66.7413374,38.4 65.6206311,39.1168 65.0921162,40.2432 C64.5699689,41.3696 64.7355278,42.6944 65.531484,43.648 L81.4506076,62.848 C82.0555343,63.584 82.9533729,64 83.895785,64 C84.8381971,64 85.7360357,63.584 86.3409624,62.848 L102.260086,43.648 C103.056042,42.6944 103.221601,41.3696 102.699454,40.2432 Z" id="Path"></path>
                <path d="M25.4718645,51.2 L25.4718645,25.6 L35.0233386,25.6 C36.2586626,25.6 37.3793689,24.8832 37.9078838,23.7568 C38.4300311,22.6304 38.2644722,21.3056 37.468516,20.352 L21.5493924,1.152 C20.9444657,0.416 20.0529948,0 19.104215,0 C18.1554352,0 17.2639643,0.416 16.6590376,1.152 L0.73991397,20.352 C-0.0560422119,21.3056 -0.221601098,22.6304 0.300546158,23.7568 C0.829061062,24.8832 1.94976737,25.6 3.18509136,25.6 L12.7365655,25.6 L12.7365655,51.2 C12.7365655,58.2592 18.4483471,64 25.4718645,64 L73,64 L62.3851284,51.2 L25.4718645,51.2 Z" id="Path"></path>
            </g>
            <text id="Recyclo" font-family="Cera-BoldItalic, Cera" font-size="80" font-style="italic" font-weight="bold" fill="#00A6FF">
                <tspan x="124" y="65">Recyclo</tspan>
            </text>
        </g>
    </g>
</svg>