<?xml version="1.0" encoding="UTF-8"?>
<svg width="94px" height="86px" viewBox="0 0 94 86" version="1.1" xmlns="http://www.w3.org/2000/svg" xmlns:xlink="http://www.w3.org/1999/xlink">
    <!-- Generator: Sketch 52.6 (67491) - http://www.bohemiancoding.com/sketch -->
    <title>sad-panda</title>
    <desc>Created with Sketch.</desc>
    <g id="Page-1" stroke="none" stroke-width="1" fill="none" fill-rule="evenodd">
        <g id="sad-panda">
            <path d="M91.9864616,32.3519491 C92.9045526,30.7832926 94.3184129,27.7013441 93.6573873,24.4348477 C93.2350654,22.3494573 92.0599089,20.5777983 90.1870031,19.1198705 C91.6192252,16.4439271 92.6291253,12.1255082 89.8564904,7.88090832 C85.8536134,1.75392074 78.2885431,-1.1619348 70.5765782,0.46208601 C67.0878322,1.20027728 63.929599,2.80584331 61.469115,5.09423626 C59.3024201,7.06889792 57.7600271,9.54183869 56.9153834,12.2916012 C53.6837029,11.2027691 50.3602133,10.6491256 47,10.6491256 C43.6397867,10.6491256 40.3162971,11.2027691 37.0846166,12.2916012 C36.2399729,9.54183869 34.6975799,7.06889792 32.5492468,5.07578148 C30.0887628,2.78738853 26.9305296,1.1818225 23.4417836,0.443631228 C15.7298187,-1.18038958 8.16474846,1.73546596 4.16187147,7.86245354 C1.38923649,12.1070534 2.39913665,16.4254723 3.83135869,19.1014157 C1.94009112,20.5593435 0.764934573,22.3310025 0.342612689,24.4163929 C-0.336774691,27.7013441 1.09544735,30.7832926 2.0135384,32.3334943 C-0.226603764,36.5780941 -0.612202006,40.8965131 0.930190962,44.6059243 C2.06862387,47.337232 4.21695693,49.5518058 6.75088824,50.6960023 C5.77771172,55.7341577 5.70426444,60.532401 6.62235549,64.6478174 C8.27491939,72.0297301 12.9020983,77.5846195 20.3937213,81.1833019 C27.0590623,84.3759792 36.0012692,86 47,86 C57.9987308,86 66.9409377,84.3759792 73.6062787,81.1833019 C81.0795399,77.5846195 85.7067188,72.0297301 87.3776445,64.6478174 C88.2957356,60.532401 88.2222883,55.7341577 87.2491118,50.6960023 C89.7830431,49.5518058 91.9313761,47.337232 93.069809,44.6059243 C94.612202,40.9149679 94.2266038,36.5965489 91.9864616,32.3519491 Z M89.6728721,43.1849061 C88.9934848,44.8089269 87.7816046,46.1745807 86.3677444,47.0050459 C85.0456932,42.1514383 82.915722,37.1686472 80.1063634,32.4626778 C79.7758506,31.9090343 79.2066341,31.595303 78.6190559,31.5768483 C78.2701813,31.5583935 77.9029448,31.6322126 77.5724321,31.8352152 C76.7094265,32.3519491 76.4156373,33.4961456 76.9481301,34.3635203 C77.6642412,35.5446264 78.3252667,36.762642 78.9495686,37.9806576 C78.9679305,38.0360219 79.0046541,38.0729315 79.0230159,38.1282958 C79.0597396,38.1836602 79.0781014,38.2390245 79.114825,38.2943889 C83.5216621,47.2080485 85.3394824,56.8598994 83.7787276,63.8173522 C82.3832292,70.0366137 78.4170758,74.7425831 72.0088003,77.8245316 C65.8575902,80.7772967 57.4295144,82.2905888 47,82.2905888 C36.5704856,82.2905888 28.1424098,80.7957515 21.9911997,77.8245316 C15.5829242,74.7425831 11.6167708,70.0366137 10.2212724,63.8173522 C8.82577402,57.5796359 10.1478251,49.1642554 13.5998475,41.0810609 C13.5998475,41.0626061 13.6182093,41.0626061 13.6182093,41.0441514 C13.654933,40.9518774 13.6916566,40.8596035 13.7467421,40.7673296 C14.7015568,38.5712106 15.803266,36.4304559 17.033508,34.3635203 C17.547639,33.4961456 17.2722117,32.3519491 16.4092061,31.8352152 C16.0786933,31.6322126 15.7298187,31.5583935 15.3625823,31.5768483 C14.775004,31.6137578 14.2057876,31.9274891 13.8752748,32.4626778 C11.0659162,37.1501924 8.95430677,42.1329835 7.61389383,46.9865911 C6.20003361,46.1561259 4.98815342,44.7720173 4.30876604,43.1664513 C3.46412227,41.1179705 3.00507674,37.7407454 5.72262626,33.2008691 C6.1082245,32.5549517 6.07150086,31.7244865 5.61245533,31.1339335 C5.59409351,31.0970239 3.33558952,28.0519849 3.94152962,25.1545842 C4.25368057,23.5859277 5.35538984,22.3125477 7.26501923,21.2237156 C7.74242658,20.9468939 8.07293935,20.4855243 8.18311028,19.9503357 C8.27491939,19.415147 8.12802482,18.8615035 7.77915022,18.4370436 C7.63225565,18.2709505 4.38221332,14.2293533 7.22829559,9.87402477 C8.84413584,7.38262921 11.2128108,5.53715103 14.058893,4.5405928 C16.7580807,3.59939893 19.7326957,3.43330589 22.6705871,4.04231369 C27.0590623,4.96505279 32.0718395,7.97318223 33.6509561,13.6388003 C30.6579793,15.0229089 27.7751734,16.8683871 25.0759857,19.1383253 C25.0576238,19.15678 25.039262,19.1752348 25.0209002,19.1936896 C24.8556438,19.3413279 24.6720256,19.4889661 24.5067692,19.6366044 C24.4516837,19.6919687 24.3965983,19.7288783 24.3415128,19.7842426 C24.2497037,19.8580618 24.1762564,19.9318809 24.0844473,20.0057 C23.9559146,20.1164287 23.8457436,20.2271574 23.7172109,20.3378861 C22.9643762,21.020713 22.9092908,22.1833643 23.5886781,22.9400103 C23.7172109,23.0691938 23.8457436,23.1799225 23.9926382,23.2721964 C24.011,23.2721964 24.011,23.2906512 24.0293619,23.2906512 C24.0660855,23.309106 24.1028091,23.3275608 24.1395328,23.3460155 C24.1578946,23.3460155 24.1762564,23.3644703 24.1946182,23.3644703 C24.2313419,23.3829251 24.2680655,23.4013799 24.3047892,23.4013799 C24.323151,23.4013799 24.3415128,23.4198347 24.3782365,23.4198347 C24.4149601,23.4382894 24.4516837,23.4382894 24.4700456,23.4567442 C24.4884074,23.4567442 24.525131,23.475199 24.5434928,23.475199 C24.5802165,23.475199 24.5985783,23.4936538 24.6353019,23.4936538 C24.6720256,23.4936538 24.6903874,23.5121086 24.7271111,23.5121086 C24.7638347,23.5121086 24.7821965,23.5121086 24.8189202,23.5121086 C24.8556438,23.5121086 24.8923674,23.5121086 24.9107293,23.5121086 C24.9290911,23.5121086 24.9474529,23.5121086 24.9474529,23.5121086 C24.9658147,23.5121086 24.9841766,23.5121086 24.9841766,23.5121086 C25.0025384,23.5121086 25.039262,23.5121086 25.0576238,23.5121086 C25.0943475,23.5121086 25.1127093,23.5121086 25.1494329,23.5121086 C25.1861566,23.5121086 25.2045184,23.5121086 25.241242,23.4936538 C25.2596039,23.4936538 25.2963275,23.475199 25.3146893,23.475199 C25.351413,23.475199 25.3697748,23.4567442 25.4064984,23.4567442 C25.4248603,23.4567442 25.4432221,23.4382894 25.4799457,23.4382894 C25.5166694,23.4198347 25.553393,23.4198347 25.5901166,23.4013799 C25.6084785,23.4013799 25.6268403,23.3829251 25.6452021,23.3829251 C25.6819258,23.3644703 25.7186494,23.3460155 25.755373,23.3275608 C25.7737349,23.3275608 25.7737349,23.309106 25.7920967,23.309106 C25.9389912,23.2352868 26.067524,23.1430129 26.1960567,23.0322842 C26.3980368,22.8477364 26.6000168,22.6816434 26.8019968,22.4970956 C32.9715687,17.126754 39.9490607,14.2847176 47.0183618,14.2847176 C54.0876629,14.2847176 61.0651549,17.126754 67.2347268,22.4970956 C67.4367068,22.6631886 67.6386869,22.8477364 67.8406669,23.0322842 C68.1711797,23.3275608 68.5751397,23.4936538 68.9974616,23.5121086 C69.0158234,23.5121086 69.0341853,23.5121086 69.0525471,23.5121086 C69.0892707,23.5121086 69.1259944,23.5121086 69.1810798,23.5121086 C69.6584872,23.4936538 70.1175327,23.2906512 70.4480455,22.9031008 C71.1274329,22.1464547 71.0723474,20.9838035 70.3195127,20.3009765 C70.2093418,20.1902478 70.0808091,20.0979739 69.9706381,19.9872452 C69.878829,19.9134261 69.7870199,19.8211522 69.6952108,19.7473331 C69.6401254,19.7104235 69.5850399,19.6550592 69.5483163,19.6181496 C69.3646981,19.4705113 69.1994417,19.3044183 69.0158234,19.15678 C68.9974616,19.1383253 68.9790998,19.1383253 68.960738,19.1198705 C66.2431885,16.8499323 63.3787444,15.0044541 60.3674057,13.6203455 C61.9465223,7.93627267 66.9592995,4.94659801 71.3477747,4.02385891 C74.2856661,3.39639633 77.2786429,3.58094415 79.9594688,4.52213802 C82.8055511,5.51869624 85.174226,7.36417443 86.8084281,9.85556998 C89.6361485,14.2108985 86.3861062,18.2524957 86.2575734,18.4185888 C85.9086988,18.8430488 85.7618043,19.3966922 85.8536134,19.9318809 C85.9454225,20.4670696 86.2942971,20.9468939 86.7717044,21.2052608 C88.6813338,22.2756382 89.7646812,23.5490181 90.095194,25.1176746 C90.7011341,28.0335301 88.4426301,31.0970239 88.4242683,31.1154787 C87.9652228,31.7244865 87.9101373,32.5364969 88.3140974,33.1824143 C90.9765614,37.7592002 90.5358777,41.15488 89.6728721,43.1849061 Z" id="Shape" fill="#00A6FF" fill-rule="nonzero"></path>
            <path d="M32.877587,39.8377544 C32.0382171,38.8079383 30.8363919,38.1595357 29.5010305,38.026041 C28.1656692,37.8925463 26.868461,38.2739597 25.8383252,39.1321397 C24.8081893,39.9712491 24.1595852,41.1727011 24.0260491,42.5076478 C23.8925129,43.8425945 24.2740447,45.1393999 25.1324913,46.1692159 C26.124474,47.370668 27.5552183,48 29.0050392,48 C30.1114814,48 31.2370003,47.6376573 32.1526766,46.8748306 C34.3083313,45.1393999 34.6135568,41.9736691 32.877587,39.8377544 Z" id="Path" fill="#FF9000"></path>
            <path d="M65,38 C63.6615679,38 62.3996176,38.5142857 61.4627151,39.4666667 C59.5124283,41.4095238 59.5124283,44.5904762 61.4627151,46.5333333 C62.4378585,47.5047619 63.7189293,48 65,48 C66.2810707,48 67.5621415,47.5047619 68.5372849,46.5333333 C70.4875717,44.5904762 70.4875717,41.4095238 68.5372849,39.4666667 C67.581262,38.5142857 66.3384321,38 65,38 Z" id="Path" fill="#FF9000"></path>
            <path d="M49.3166342,60.3059083 L49.3166342,58.8845941 C51.6469784,58.5748205 54.7783785,57.408614 55.415582,52.9806737 C55.6886692,51.10381 55.6704634,48.6802871 55.3609645,46.4936499 C54.924025,43.4505798 53.9773226,41.0635008 52.5754749,39.4417449 C51.191833,37.8382109 49.3712516,37 47.277583,37 C45.2021201,37 43.3633329,37.8382109 41.979691,39.4417449 C40.5596375,41.0817228 39.6311409,43.4505798 39.1942014,46.5118719 C38.8847025,48.6985091 38.8482909,51.122032 39.1213781,52.9988956 C39.430877,55.1673109 40.4139909,56.7890668 41.9978968,57.7912755 C42.9992166,58.4108227 44.1825945,58.7934843 45.6754713,58.9392601 L45.6754713,60.3241303 C37.2279734,61.1076753 34.2968373,67.1391496 34.1693966,67.4124793 C33.7506629,68.3235781 34.132985,69.4168967 35.0432757,69.8360022 C35.2981571,69.9453341 35.5530385,70 35.8079199,70 C36.4997409,70 37.1551502,69.6173385 37.464649,68.9431253 C37.4828548,68.8884594 39.922434,63.8591938 47.4960527,63.8591938 C54.924025,63.8591938 57.4182215,68.7062396 57.5274564,68.9431253 C57.964396,69.8542242 59.038539,70.2368857 59.9488297,69.7995583 C60.8591205,69.3804528 61.2596484,68.2871342 60.8227088,67.3760353 C60.6952681,67.1391496 57.764132,61.0894533 49.3166342,60.3059083 Z" id="Path" fill="#FF9000"></path>
        </g>
    </g>
</svg>