<?xml version="1.0" encoding="UTF-8"?>
<svg width="795px" height="463px" viewBox="0 0 795 463" version="1.1" xmlns="http://www.w3.org/2000/svg" xmlns:xlink="http://www.w3.org/1999/xlink">
    <!-- Generator: Sketch 52.6 (67491) - http://www.bohemiancoding.com/sketch -->
    <title>share</title>
    <desc>Created with Sketch.</desc>
    <g id="Page-1" stroke="none" stroke-width="1" fill="none" fill-rule="evenodd">
        <g id="share">
            <rect id="Rectangle" fill="#FF9000" x="0" y="0" width="795" height="463"></rect>
            <g id="Group" transform="translate(338.906634, 250.111481) rotate(-15.000000) translate(-338.906634, -250.111481) translate(263.906634, 187.111481)" fill="#FFFFFF">
                <path d="M142.224882,0.662857143 C138.416766,0.662857143 135.4365,3.64571429 135.4365,7.45714286 L135.4365,10.7714286 L12.7489126,49.3828571 C11.5899206,47.2285714 9.43750674,45.7371429 6.78838204,45.7371429 C2.98026529,45.7371429 0,48.72 0,52.5314286 L0,73.7428571 C0,77.5542857 2.98026529,80.5371429 6.78838204,80.5371429 C9.43750674,80.5371429 11.5899206,79.0457143 12.7489126,76.8914286 L135.4365,115.502857 L135.4365,118.817143 C135.4365,122.628571 138.416766,125.611429 142.224882,125.611429 C146.032999,125.611429 149.013264,122.628571 149.013264,118.817143 L149.013264,7.45714286 C149.013264,3.64571429 146.032999,0.662857143 142.224882,0.662857143 Z M13.5767641,62.8057143 L13.7423344,57.0057143 L135.4365,21.0457143 L135.4365,45.7371429 L13.5767641,62.8057143 Z" id="Shape" fill-rule="nonzero"></path>
                <path d="M70.2018045,98.2685714 L67.8838204,106.057143 C67.3871095,107.88 66.2281175,109.205714 64.5724145,110.034286 C62.9167116,110.862857 61.0954384,111.028571 59.4397354,110.531429 L40.8958625,104.897143 C37.2533161,103.737143 35.2664726,99.9257143 36.4254646,96.4457143 L38.7434487,88.6571429 L35.1009023,87.4971429 L34.4386211,87.3314286 L30.1337935,86.0057143 L27.8158093,93.7942857 C25.1666846,102.245714 29.8026529,111.028571 38.0811675,113.514286 L56.6250404,119.148571 C58.1151731,119.645714 59.6053057,119.811429 61.2610087,119.811429 C63.7445631,119.811429 66.3936878,119.148571 68.7116719,117.988571 C72.3542183,116 75.1689133,112.685714 76.3279054,108.708571 L78.6458895,100.92 L70.2018045,98.2685714 Z" id="Path"></path>
            </g>
            <g id="Group" transform="translate(468.687507, 160.452344) rotate(-6.000000) translate(-468.687507, -160.452344) translate(436.187507, 135.452344)" fill="#FFFFFF" fill-rule="nonzero">
                <path d="M63.0144915,8.76421394 C61.0172021,9.70853942 58.8096717,10.4430148 56.6021412,10.862715 C54.3946108,7.29526319 50.7153934,4.7770619 46.5105735,4.14751158 C45.77473,4.04258653 45.0388866,3.93766148 44.3030431,3.93766148 C37.1548493,3.93766148 31.162981,9.0789891 30.111776,16.1089677 C30.0066555,16.8434431 29.901535,17.6828435 29.901535,18.4173189 C21.7021362,15.3744923 14.9744244,9.28883921 11.1900866,1.31453514 C10.9798456,0.894834924 10.5593636,0.684984816 10.1388816,0.580059763 C9.7183996,0.580059763 9.29791761,0.78990987 8.98255612,1.10468503 C6.56478469,4.7770619 5.93406171,9.18391415 7.19550767,13.2759912 C6.98526668,13.2759912 6.77502568,13.1710662 6.66990519,13.2759912 C6.1443027,13.3809163 5.82894121,13.6956915 5.72382071,14.2203167 C4.56749525,18.627169 5.72382071,23.3487964 8.45695363,26.8113231 C8.14159214,26.8113231 7.93135115,26.9162482 7.72111015,27.1260983 C7.30062817,27.4408735 7.19550767,27.9654987 7.30062817,28.3851989 C8.45695363,32.8969763 11.715689,36.5693531 15.9205089,38.1432289 C11.505448,39.7171047 6.88014618,40.3466551 2.14972382,40.0318799 C1.62412133,40.0318799 1.09851885,40.3466551 0.888277855,40.8712803 C0.678036861,41.3959056 0.888277855,41.9205309 1.30875984,42.3402311 C6.0391822,45.9076829 11.6105685,48.2160341 17.4973164,49.1603595 C19.3894853,49.4751347 21.1765338,49.5800598 23.0687027,49.5800598 C39.2572592,49.5800598 53.5536468,38.7727792 57.8635872,23.2438713 C58.1789487,22.4044709 58.3891897,21.4601454 58.4943102,20.620745 C58.4943102,20.4108949 58.5994307,20.2010448 58.5994307,19.9911947 C58.7045512,19.6764195 58.7045512,19.3616443 58.8096717,19.0468692 C61.2274431,16.5286679 63.2247325,13.6956915 64.6964195,10.5479398 C64.9066605,10.1282396 64.80154,9.49868931 64.4861785,9.18391415 C64.0656965,8.65928888 63.4349735,8.55436383 63.0144915,8.76421394 Z M47.2227312,16.0331569 C45.8559347,15.8228805 44.909691,14.5612222 45.1199674,13.1944257 C45.3302438,11.8276292 46.5919021,10.8813855 47.9586986,11.0916619 C49.3254951,11.3019382 50.2717388,12.5635965 50.0614624,13.9303931 C49.851186,15.2971896 48.5895277,16.2434333 47.2227312,16.0331569 Z" id="Shape"></path>
            </g>
            <g id="Group" transform="translate(507.693039, 240.576143) rotate(7.000000) translate(-507.693039, -240.576143) translate(474.693039, 209.576143)" fill="#FFFFFF">
                <path d="M56.8836534,23.8330424 C53.7330333,23.6291421 50.8563801,23.7650756 47.0893342,24.1049095 C45.5140241,24.2408431 44.8975984,22.0659062 45.2400571,18.735534 C45.7194993,12.9583579 46.4044168,8.88035115 46.883859,5.54997901 C47.8427434,-0.431097488 39.2812755,-1.45059916 37.4319984,3.17114177 C35.6512131,7.58898236 30.7198076,23.2213414 21.1994554,27.5712152 C20.1035875,28.0469827 19.41867,29.2024179 19.41867,30.4258199 C19.41867,35.5233283 19.41867,48.1651491 19.3501783,53.4665578 C19.3501783,54.8938601 20.3090627,56.1172621 21.6788976,56.5250628 C27.0212535,57.9523652 40.3086516,61.2827373 49.6920204,61.2827373 C55.7877855,61.2827373 59.3493562,60.8069699 60.6506993,55.1657272 C62.0205342,49.2526175 63.7328277,40.5528699 65.0341708,33.8241588 C66.4040057,26.6196803 63.2533855,24.2408431 56.8836534,23.8330424 Z" id="Path"></path>
                <path d="M14.9879652,26.4922605 L2.06220097,26.4922605 C1.22377303,26.4922605 0.52508307,27.1603189 0.52508307,27.9619891 L0.52508307,57.0225319 C0.52508307,57.824202 1.22377303,58.4922605 2.06220097,58.4922605 L14.9879652,58.4922605 C15.8263931,58.4922605 16.5250831,57.824202 16.5250831,57.0225319 L16.5250831,27.9619891 C16.5250831,27.1603189 15.8263931,26.4922605 14.9879652,26.4922605 Z M8.49014857,53.7490454 C6.88316167,53.7490454 5.62551975,52.5465402 5.62551975,51.0100058 C5.62551975,49.4734713 6.88316167,48.2709661 8.49014857,48.2709661 C10.0971355,48.2709661 11.3547774,49.4734713 11.3547774,51.0100058 C11.3547774,52.5465402 10.0971355,53.7490454 8.49014857,53.7490454 Z" id="Shape" fill-rule="nonzero"></path>
            </g>
        </g>
    </g>
</svg>